<svg width="422.9849609375px" height="122.021240234375px" xmlns="http://www.w3.org/2000/svg" viewBox="38.50751953125001 13.9893798828125 422.9849609375 122.021240234375" style="background: none;" preserveAspectRatio="xMidYMid"><defs><filter id="editing-hover" x="-100%" y="-100%" width="300%" height="300%"><feFlood flood-color="#052b4a" result="flood"></feFlood><feComposite operator="in" in2="SourceAlpha" in="flood" result="shadow"></feComposite><feOffset dx="-2" dy="-1.9" in="SourceGraphic" result="offset-1"></feOffset><feOffset dx="2" dy="1.9" in="shadow" result="offset-2"></feOffset><feMerge><feMergeNode in="offset-2"></feMergeNode><feMergeNode in="offset-1"></feMergeNode></feMerge></filter></defs><g filter="url(#editing-hover)"><g transform="translate(102.930002450943, 104.78218841552734)"><path d="M42.62-26.56L42.62-26.56L42.62-26.56Q42.62 0.70 13.06 0.70L13.06 0.70L13.06 0.70Q8.32 0.70 0.51-0.45L0.51-0.45L7.68-38.27L7.68-38.27Q8.19-40.83 8.51-42.30L8.51-42.30L8.51-42.30Q18.24-43.01 22.56-43.01L22.56-43.01L22.56-43.01Q26.88-43.01 30.85-42.11L30.85-42.11L30.85-42.11Q34.82-41.22 37.44-39.23L37.44-39.23L37.44-39.23Q42.62-35.33 42.62-26.56ZM29.44-28.93L29.44-28.93L29.44-28.93Q29.44-38.46 22.59-38.46L22.59-38.46L21.95-38.46L21.95-38.46Q21.63-38.46 21.31-38.40L21.31-38.40L14.72-4.03L14.72-4.03Q14.98-3.90 15.23-3.90L15.23-3.90L15.74-3.90L15.74-3.90Q18.11-3.90 20.58-5.38L20.58-5.38L20.58-5.38Q23.04-6.85 24.96-9.86L24.96-9.86L24.96-9.86Q29.44-16.83 29.44-28.93ZM48.67-1.92L48.67-1.92L48.67-1.92Q47.17-3.58 46.50-6.21L46.50-6.21L46.50-6.21Q45.82-8.83 45.82-13.12L45.82-13.12L45.82-13.12Q45.82-17.41 47.30-21.31L47.30-21.31L47.30-21.31Q48.77-25.22 51.46-28.03L51.46-28.03L51.46-28.03Q56.96-33.92 66.05-33.92L66.05-33.92L66.05-33.92Q69.31-33.92 71.68-32.83L71.68-32.83L82.62-33.92L77.89-8.96L77.89-8.96Q77.70-8.19 77.70-6.78L77.70-6.78L77.70-6.78Q77.70-5.38 78.56-4.48L78.56-4.48L78.56-4.48Q79.42-3.58 80.70-3.46L80.70-3.46L80.70-3.46Q80.06-1.28 77.73 0L77.73 0L77.73 0Q75.39 1.28 72.77 1.28L72.77 1.28L72.77 1.28Q70.14 1.28 68.38 0.29L68.38 0.29L68.38 0.29Q66.62-0.70 66.11-2.37L66.11-2.37L66.11-2.37Q65.09-0.77 62.91 0.26L62.91 0.26L62.91 0.26Q60.74 1.28 57.82 1.28L57.82 1.28L57.82 1.28Q54.91 1.28 52.54 0.51L52.54 0.51L52.54 0.51Q50.18-0.26 48.67-1.92ZM62.18-27.90L62.18-27.90L62.18-27.90Q61.44-26.75 60.80-24.80L60.80-24.80L60.80-24.80Q60.16-22.85 59.10-17.63L59.10-17.63L59.10-17.63Q58.05-12.42 58.05-8.70L58.05-8.70L58.05-8.70Q58.05-4.99 58.62-3.90L58.62-3.90L58.62-3.90Q59.20-2.82 60.22-2.82L60.22-2.82L60.22-2.82Q62.27-2.82 63.78-4.77L63.78-4.77L63.78-4.77Q65.28-6.72 65.86-10.18L65.86-10.18L69.25-28.93L69.25-28.93Q67.90-30.08 66.34-30.08L66.34-30.08L66.34-30.08Q64.77-30.08 63.84-29.57L63.84-29.57L63.84-29.57Q62.91-29.06 62.18-27.90ZM101.44-3.52L101.44-3.52L101.44-3.52Q99.46 1.28 93.12 1.28L93.12 1.28L93.12 1.28Q89.86 1.28 87.81-0.96L87.81-0.96L87.81-0.96Q86.08-2.94 86.08-4.93L86.08-4.93L86.08-4.93Q86.08-10.11 88.45-20.22L88.45-20.22L90.82-32.64L103.81-33.92L99.90-13.70L99.90-13.70Q98.82-8.96 98.82-7.30L98.82-7.30L98.82-7.30Q98.82-3.65 101.44-3.52ZM91.97-41.54L91.97-41.54L91.97-41.54Q91.97-44.03 94.05-45.38L94.05-45.38L94.05-45.38Q96.13-46.72 99.14-46.72L99.14-46.72L99.14-46.72Q102.14-46.72 103.97-45.38L103.97-45.38L103.97-45.38Q105.79-44.03 105.79-41.54L105.79-41.54L105.79-41.54Q105.79-39.04 103.78-37.76L103.78-37.76L103.78-37.76Q101.76-36.48 98.75-36.48L98.75-36.48L98.75-36.48Q95.74-36.48 93.86-37.76L93.86-37.76L93.86-37.76Q91.97-39.04 91.97-41.54ZM122.18-3.52L122.18-3.52L122.18-3.52Q120.19 1.28 113.86 1.28L113.86 1.28L113.86 1.28Q110.66 1.28 108.61-0.96L108.61-0.96L108.61-0.96Q106.94-2.82 106.94-4.93L106.94-4.93L106.94-4.93Q106.94-9.73 109.18-20.22L109.18-20.22L113.86-44.80L126.85-46.08L120.64-13.70L120.64-13.70Q119.55-8.96 119.55-7.30L119.55-7.30L119.55-7.30Q119.55-3.65 122.18-3.52ZM147.97-7.23L147.97-7.23L147.97-7.23Q144.64-3.78 138.56-3.78L138.56-3.78L138.56-3.78Q130.94-3.78 129.34-9.34L129.34-9.34L129.34-9.34Q128.83-11.01 128.83-12.86L128.83-12.86L128.83-12.86Q128.83-14.72 129.22-16.64L129.22-16.64L132.22-32.64L145.22-33.92L141.70-15.30L141.70-15.30Q141.57-14.46 141.38-13.57L141.38-13.57L141.38-13.57Q141.18-12.67 141.18-11.74L141.18-11.74L141.18-11.74Q141.18-10.82 141.50-10.21L141.50-10.21L141.50-10.21Q141.82-9.60 142.27-9.22L142.27-9.22L142.27-9.22Q143.04-8.70 144.42-8.70L144.42-8.70L144.42-8.70Q145.79-8.70 146.98-10.37L146.98-10.37L146.98-10.37Q148.16-12.03 148.74-14.91L148.74-14.91L152.26-32.64L164.86-33.92L160.06-8.77L160.06-8.77Q157.70 3.52 152.83 8.38L152.83 8.38L152.83 8.38Q150.34 10.88 147.10 11.87L147.10 11.87L147.10 11.87Q143.87 12.86 139.71 12.86L139.71 12.86L139.71 12.86Q132.99 12.86 129.15 10.75L129.15 10.75L129.15 10.75Q125.31 8.64 125.31 5.12L125.31 5.12L125.31 5.12Q125.31 2.50 127.30 0.99L127.30 0.99L127.30 0.99Q129.28-0.51 132.35-0.51L132.35-0.51L132.35-0.51Q135.04-0.51 137.09 0.64L137.09 0.64L137.09 0.64Q138.30 1.34 138.88 2.24L138.88 2.24L138.88 2.24Q137.41 3.52 137.41 5.63L137.41 5.63L137.41 5.63Q137.41 8.45 139.97 8.45L139.97 8.45L139.97 8.45Q144.19 8.45 146.62-1.28L146.62-1.28L146.62-1.28Q147.33-4.16 147.97-7.23ZM214.91-10.69L214.91-10.69Q210.69-4.86 206.62-1.79L206.62-1.79L206.62-1.79Q202.56 1.28 198.37 1.28L198.37 1.28L198.37 1.28Q194.18 1.28 192.70 0.45L192.70 0.45L192.70-13.63L192.70-13.63Q189.06-3.90 182.53-0.13L182.53-0.13L182.53-0.13Q180.16 1.28 177.92 1.28L177.92 1.28L177.92 1.28Q173.63 1.28 171.78 0.45L171.78 0.45L171.78 0.45Q171.33-14.21 170.94-18.27L170.94-18.27L170.94-18.27Q170.56-22.34 170.24-24.83L170.24-24.83L170.24-24.83Q169.60-29.82 167.42-31.87L167.42-31.87L167.42-31.87Q170.18-33.92 174.02-33.92L174.02-33.92L174.02-33.92Q181.44-33.92 182.46-24.70L182.46-24.70L182.46-24.70Q182.72-22.53 182.72-20.22L182.72-20.22L182.72-20.22Q182.72-16.77 181.95-4.74L181.95-4.74L181.95-4.74Q183.49-5.44 185.12-7.97L185.12-7.97L185.12-7.97Q186.75-10.50 188.10-13.95L188.10-13.95L188.10-13.95Q191.10-21.95 191.10-28.86L191.10-28.86L191.10-28.86Q191.10-29.95 190.82-31.10L190.82-31.10L190.82-31.10Q190.53-32.26 190.21-32.58L190.21-32.58L190.21-32.58Q192.45-33.92 195.87-33.92L195.87-33.92L195.87-33.92Q199.30-33.92 200.93-31.58L200.93-31.58L200.93-31.58Q202.56-29.25 203.01-24.96L203.01-24.96L203.01-24.96Q203.52-19.52 203.52-16.26L203.52-16.26L203.52-16.26Q203.52-11.71 203.07-4.99L203.07-4.99L203.07-4.99Q206.27-7.30 208.90-14.85L208.90-14.85L208.90-14.85Q211.52-22.40 211.52-27.78L211.52-27.78L211.52-27.78Q211.52-30.14 211.14-31.55L211.14-31.55L211.14-31.55Q213.25-33.92 216.90-33.92L216.90-33.92L216.90-33.92Q219.14-33.92 220.77-32.70L220.77-32.70L220.77-32.70Q222.40-31.49 222.40-29.22L222.40-29.22L222.40-29.22Q222.40-26.94 221.73-24.51L221.73-24.51L221.73-24.51Q221.06-22.08 219.97-19.58L219.97-19.58L219.97-19.58Q217.86-14.59 214.91-10.69L214.91-10.69ZM250.05-10.82L250.05-10.82L250.05-10.82Q251.65-9.73 251.65-7.33L251.65-7.33L251.65-7.33Q251.65-4.93 250.43-3.39L250.43-3.39L250.43-3.39Q249.22-1.86 247.23-0.83L247.23-0.83L247.23-0.83Q243.14 1.28 238.72 1.28L238.72 1.28L238.72 1.28Q234.30 1.28 231.71 0.32L231.71 0.32L231.71 0.32Q229.12-0.64 227.39-2.43L227.39-2.43L227.39-2.43Q224.00-5.82 224.00-12.03L224.00-12.03L224.00-12.03Q224.00-21.70 229.25-27.58L229.25-27.58L229.25-27.58Q234.88-33.92 244.67-33.92L244.67-33.92L244.67-33.92Q250.75-33.92 253.76-31.36L253.76-31.36L253.76-31.36Q256-29.44 256-26.30L256-26.30L256-26.30Q256-15.04 236.54-15.04L236.54-15.04L236.54-15.04Q236.29-13.38 236.29-11.97L236.29-11.97L236.29-11.97Q236.29-9.02 237.60-7.90L237.60-7.90L237.60-7.90Q238.91-6.78 241.34-6.78L241.34-6.78L241.34-6.78Q243.78-6.78 246.37-7.90L246.37-7.90L246.37-7.90Q248.96-9.02 250.05-10.82ZM236.99-17.79L236.99-17.79L236.99-17.79Q241.54-17.79 244.16-20.61L244.16-20.61L244.16-20.61Q246.78-23.30 246.78-27.58L246.78-27.58L246.78-27.58Q246.78-29.06 246.24-29.86L246.24-29.86L246.24-29.86Q245.70-30.66 244.61-30.66L244.61-30.66L244.61-30.66Q243.52-30.66 242.59-30.24L242.59-30.24L242.59-30.24Q241.66-29.82 240.70-28.42L240.70-28.42L240.70-28.42Q238.34-25.22 236.99-17.79ZM257.34-3.07L257.34-3.07L265.28-44.80L278.27-46.08L276.29-36.29L276.29-36.29Q275.58-33.28 274.69-31.17L274.69-31.17L274.69-31.17Q276.10-32.96 279.17-33.66L279.17-33.66L279.17-33.66Q280.06-33.92 281.15-33.92L281.15-33.92L281.15-33.92Q287.10-33.92 290.37-30.30L290.37-30.30L290.37-30.30Q293.63-26.69 293.63-19.71L293.63-19.71L293.63-19.71Q293.63-10.62 288.45-4.93L288.45-4.93L288.45-4.93Q282.88 1.28 272.77 1.28L272.77 1.28L272.77 1.28Q265.79 1.28 260.54-1.02L260.54-1.02L260.54-1.02Q258.69-1.86 257.34-3.07ZM273.60-22.40L270.21-3.65L270.21-3.65Q271.55-2.50 273.22-2.50L273.22-2.50L273.22-2.50Q274.88-2.50 275.84-3.14L275.84-3.14L275.84-3.14Q276.80-3.78 277.50-5.06L277.50-5.06L277.50-5.06Q279.42-8.51 280.96-19.07L280.96-19.07L280.96-19.07Q281.41-22.08 281.41-25.09L281.41-25.09L281.41-25.09Q281.41-28.10 280.74-29.06L280.74-29.06L280.74-29.06Q280.06-30.02 278.78-30.02L278.78-30.02L278.78-30.02Q274.88-30.02 273.60-22.40L273.60-22.40Z" fill="#ffd5af"></path></g></g>
<style>text {
  font-size: 64px;
  font-family: Arial Black;
  dominant-baseline: central;
  text-anchor: middle;
}</style></svg>